<svg width="137" height="130" viewBox="0 0 137 130" fill="none" xmlns="http://www.w3.org/2000/svg">
<path d="M5.472 73V71.728H8.304V56.632H10.872V71.728H13.704V73H5.472ZM1.272 62.104V58.072H4.656C3.952 58.072 3.464 58.224 3.192 58.528C2.92 58.832 2.784 59.352 2.784 60.088V62.104H1.272ZM1.272 58.072V56.632H17.904V58.072H1.272ZM16.392 60.088C16.392 59.352 16.256 58.832 15.984 58.528C15.712 58.224 15.224 58.072 14.52 58.072H17.904V62.104H16.392V60.088ZM15.6727 73V71.728H17.3767L23.8328 56.56H26.1608L32.6408 71.728H34.3448V73H27.0488V71.728H29.8808L24.1208 58.12H25.0088L19.2248 71.728H22.0328V73H15.6727ZM20.4248 67.888V66.4H28.7287V67.888H20.4248ZM33.7528 73V71.728H36.0568V57.88H33.8008V56.608H38.6008V71.728H41.1208V73H33.7528ZM47.1688 73.216C46.3688 73.216 45.7208 73.072 45.2248 72.784C44.7288 72.496 44.3528 72.096 44.0968 71.584C43.8568 71.056 43.7128 70.44 43.6648 69.736L43.5928 68.632C43.5128 67.608 43.2328 66.856 42.7528 66.376C42.2728 65.896 41.5928 65.656 40.7128 65.656H38.6008V65.272H42.4168C43.7608 65.256 44.7048 65.584 45.2488 66.256C45.7928 66.928 46.0888 67.904 46.1368 69.184L46.1848 70C46.2168 70.432 46.3288 70.8 46.5208 71.104C46.7128 71.408 47.0568 71.56 47.5528 71.56C48.0328 71.56 48.3688 71.416 48.5608 71.128C48.7688 70.824 48.8728 70.448 48.8728 70V66.808H50.4808V69.76C50.4808 70.8 50.2168 71.64 49.6888 72.28C49.1768 72.904 48.3368 73.216 47.1688 73.216ZM38.6008 65.656V64.216H43.6408C44.8248 64.216 45.7528 63.96 46.4248 63.448C47.1128 62.936 47.4568 62.168 47.4568 61.144C47.4568 60.104 47.1128 59.328 46.4248 58.816C45.7528 58.304 44.8248 58.048 43.6408 58.048H38.6008V56.608H44.4088C46.0888 56.608 47.4408 56.976 48.4648 57.712C49.5048 58.432 50.0248 59.528 50.0248 61C50.0248 62.456 49.5048 63.552 48.4648 64.288C47.4408 65.008 46.1048 65.368 44.4568 65.368H42.7048L42.3928 65.656H38.6008ZM79.6755 73L69.0915 60.016L69.5715 56.632L79.6995 69.112L79.6755 73ZM65.1075 73V71.728H67.4115V57.904H65.1555V56.632H69.5715L69.0915 59.992V71.728H71.5635V73H65.1075ZM79.6755 73L79.5555 69.112H79.6995V57.904H77.2755V56.632H83.6355V57.904H81.4035V73H79.6755ZM82.2868 73V71.728H83.9908L90.4468 56.56H92.7748L99.2548 71.728H100.959V73H93.6628V71.728H96.4948L90.7348 58.12H91.6228L85.8388 71.728H88.6468V73H82.2868ZM87.0388 67.888V66.4H95.3428V67.888H87.0388ZM104.687 67.72L103.655 66.448L113.087 57.904H110.231V56.632H117.023V57.904H115.583L104.687 67.72ZM100.367 73V71.728H102.671V57.904H100.415V56.632H107.567V57.904H105.215V71.728H107.447V73H100.367ZM110.423 73V71.728H112.871L106.895 64.96L108.743 63.328L116.159 71.728H117.623V73H110.423ZM117.151 73V71.728H119.623V57.904H117.199V56.632H124.615V57.904H122.191V71.728H124.663V73H117.151Z" fill="black"/>
<path d="M57.3429 57L65.6859 73H49L57.3429 57Z" fill="black"/>
<path d="M57.3429 57L65.6859 73H49L57.3429 57Z" stroke="black"/>
</svg>
